<?xml version="1.0" encoding="iso-8859-1"?>
<!-- Generator: Adobe Illustrator 16.0.0, SVG Export Plug-In . SVG Version: 6.00 Build 0)  -->
<!DOCTYPE svg PUBLIC "-//W3C//DTD SVG 1.1//EN" "http://www.w3.org/Graphics/SVG/1.1/DTD/svg11.dtd">
<svg version="1.1" id="Capa_1" xmlns="http://www.w3.org/2000/svg" xmlns:xlink="http://www.w3.org/1999/xlink" x="0px" y="0px"
	 width="45.001px" height="45.001px" viewBox="0 0 45.001 45.001" style="enable-background:new 0 0 45.001 45.001;"
	 xml:space="preserve">
<g>
	<path d="M35.632,12.191c-0.563,0-1.11,0.059-1.646,0.153c-1.17-5.269-5.864-9.213-11.486-9.213s-10.317,3.943-11.487,9.213
		c-0.535-0.095-1.083-0.153-1.645-0.153C4.194,12.191,0,16.385,0,21.559c0,3.85,2.324,7.152,5.644,8.593l4.294,9.703H8.493
		c0,1.111,0.902,2.015,2.014,2.015h23.987c1.111,0,2.013-0.9,2.013-2.015h-1.444l4.293-9.703c3.32-1.438,5.646-4.743,5.646-8.593
		C45,16.386,40.807,12.191,35.632,12.191z M22.369,5.539c1.771,0,3.418,0.516,4.814,1.395c-1.009-0.386-2.098-0.606-3.239-0.606
		c-4.138,0-7.621,2.776-8.705,6.565h-1.766C14.272,8.705,17.948,5.539,22.369,5.539z M12.083,39.511l-3.831-8.655
		c0.367,0.045,0.738,0.071,1.116,0.071c1.959,0,3.773-0.604,5.277-1.635l0.268,10.219H12.083z M21.362,39.511h-3.965l-2.431-10.454
		c0.339-0.255,0.667-0.521,0.969-0.818c1.643,1.615,3.878,2.623,6.351,2.68L21.362,39.511z M27.604,39.511H23.95l-0.925-8.61
		c2.349-0.129,4.468-1.114,6.042-2.664c0.303,0.298,0.629,0.564,0.97,0.818L27.604,39.511z M32.917,39.511h-2.83l0.269-10.219
		c1.502,1.028,3.316,1.635,5.276,1.635c0.378,0,0.749-0.026,1.116-0.071L32.917,39.511z"/>
</g>
<g>
</g>
<g>
</g>
<g>
</g>
<g>
</g>
<g>
</g>
<g>
</g>
<g>
</g>
<g>
</g>
<g>
</g>
<g>
</g>
<g>
</g>
<g>
</g>
<g>
</g>
<g>
</g>
<g>
</g>
</svg>
