<?xml version="1.0" encoding="iso-8859-1"?>
<!-- Generator: Adobe Illustrator 16.0.0, SVG Export Plug-In . SVG Version: 6.00 Build 0)  -->
<!DOCTYPE svg PUBLIC "-//W3C//DTD SVG 1.1//EN" "http://www.w3.org/Graphics/SVG/1.1/DTD/svg11.dtd">
<svg version="1.1" id="Capa_1" xmlns="http://www.w3.org/2000/svg" xmlns:xlink="http://www.w3.org/1999/xlink" x="0px" y="0px"
	 width="45px" height="45px" viewBox="0 0 45 45" style="enable-background:new 0 0 45 45;" xml:space="preserve">
<g>
	<path d="M14.982,3.243V1.179C14.982,0.528,15.51,0,16.163,0h12.678c0.65,0,1.18,0.528,1.18,1.179v2.064
		c0,0.651-0.527,1.179-1.18,1.179H16.164C15.51,4.422,14.982,3.894,14.982,3.243z M34.19,9.074v32.505
		c0,1.889-1.531,3.421-3.422,3.421H14.231c-1.89,0-3.422-1.532-3.422-3.421V9.074c0-1.889,1.532-3.421,3.422-3.421h16.537
		C32.659,5.652,34.19,7.185,34.19,9.074z M22.944,24.253l5.219-5.218c-1.397-1.259-3.213-2.056-5.219-2.161V24.253z M14.049,24.882
		h7.378l-5.218-5.218C14.952,21.062,14.153,22.877,14.049,24.882z M16.209,30.989l5.218-5.218h-7.378
		C14.153,27.775,14.952,29.591,16.209,30.989z M22.058,26.398l-5.218,5.219c1.398,1.26,3.214,2.056,5.218,2.16V26.398z
		 M22.058,16.875c-2.004,0.104-3.82,0.901-5.218,2.161l5.218,5.218V16.875z M28.165,31.617l-5.22-5.219v7.379
		C24.95,33.673,26.767,32.876,28.165,31.617z M30.952,25.771h-7.377l5.217,5.218C30.052,29.591,30.849,27.775,30.952,25.771z
		 M30.952,24.882c-0.104-2.004-0.9-3.82-2.16-5.218l-5.22,5.218H30.952z"/>
</g>
<g>
</g>
<g>
</g>
<g>
</g>
<g>
</g>
<g>
</g>
<g>
</g>
<g>
</g>
<g>
</g>
<g>
</g>
<g>
</g>
<g>
</g>
<g>
</g>
<g>
</g>
<g>
</g>
<g>
</g>
</svg>
