<?xml version="1.0" encoding="iso-8859-1"?>
<!-- Generator: Adobe Illustrator 16.0.0, SVG Export Plug-In . SVG Version: 6.00 Build 0)  -->
<!DOCTYPE svg PUBLIC "-//W3C//DTD SVG 1.1//EN" "http://www.w3.org/Graphics/SVG/1.1/DTD/svg11.dtd">
<svg version="1.1" id="Capa_1" xmlns="http://www.w3.org/2000/svg" xmlns:xlink="http://www.w3.org/1999/xlink" x="0px" y="0px"
	 width="45.001px" height="45.001px" viewBox="0 0 45.001 45.001" style="enable-background:new 0 0 45.001 45.001;"
	 xml:space="preserve">
<g>
	<path d="M38.603,8.698h-1.414V7.466c0-2.674-2.168-4.843-4.842-4.843h-4.703C27.357,1.129,26.052,0,24.478,0
		c-1.578,0-2.886,1.13-3.167,2.624h-4.703c-2.675,0-4.843,2.168-4.843,4.843v3.426L6.83,5.51L0.164,5.58l11.6,18.98v15.599
		c0,2.674,2.168,4.842,4.843,4.842h15.741c2.674,0,4.844-2.168,4.844-4.842v-8.295h1.412c3.438,0,6.234-2.798,6.234-6.234V14.934
		C44.837,11.495,42.041,8.698,38.603,8.698z M42.054,25.627c0,1.902-1.55,3.451-3.451,3.451h-1.414V11.481h1.414
		c1.9,0,3.449,1.548,3.449,3.451L42.054,25.627L42.054,25.627z"/>
</g>
<g>
</g>
<g>
</g>
<g>
</g>
<g>
</g>
<g>
</g>
<g>
</g>
<g>
</g>
<g>
</g>
<g>
</g>
<g>
</g>
<g>
</g>
<g>
</g>
<g>
</g>
<g>
</g>
<g>
</g>
</svg>
