<?xml version="1.0" encoding="iso-8859-1"?>
<!-- Generator: Adobe Illustrator 16.0.0, SVG Export Plug-In . SVG Version: 6.00 Build 0)  -->
<!DOCTYPE svg PUBLIC "-//W3C//DTD SVG 1.1//EN" "http://www.w3.org/Graphics/SVG/1.1/DTD/svg11.dtd">
<svg version="1.1" id="Capa_1" xmlns="http://www.w3.org/2000/svg" xmlns:xlink="http://www.w3.org/1999/xlink" x="0px" y="0px"
	 width="44.999px" height="44.999px" viewBox="0 0 44.999 44.999" style="enable-background:new 0 0 44.999 44.999;"
	 xml:space="preserve">
<g>
	<path d="M14.222,10.977v25.486c0,1.978-1.603,3.579-3.579,3.579H3.579C1.603,40.042,0,38.438,0,36.462V10.977H14.222L14.222,10.977
		z M44.999,9.64V8.537c0-1.977-1.604-3.579-3.58-3.579H20.572c-1.977,0-3.579,1.603-3.579,3.579V9.64H44.999z M14.222,9.64V8.537
		c0-1.977-1.603-3.579-3.579-3.579H3.579C1.603,4.958,0,6.561,0,8.537V9.64H14.222z M44.999,10.977v25.486
		c0,1.978-1.604,3.579-3.58,3.579H20.572c-1.977,0-3.579-1.604-3.579-3.579V10.977H44.999L44.999,10.977z M43.325,12.558H18.666
		v11.134h24.659V12.558z"/>
</g>
<g>
</g>
<g>
</g>
<g>
</g>
<g>
</g>
<g>
</g>
<g>
</g>
<g>
</g>
<g>
</g>
<g>
</g>
<g>
</g>
<g>
</g>
<g>
</g>
<g>
</g>
<g>
</g>
<g>
</g>
</svg>
